<svg xmlns="http://www.w3.org/2000/svg" xmlns:xlink="http://www.w3.org/1999/xlink" width="122" zoomAndPan="magnify" viewBox="0 0 91.5 153.749995" height="205" preserveAspectRatio="xMidYMid meet" version="1.0"><defs><clipPath id="81a00d1246"><path d="M 53 0.292969 L 70 0.292969 L 70 38 L 53 38 Z M 53 0.292969 " clip-rule="nonzero"/></clipPath><clipPath id="d3cbfa7d6b"><path d="M 64 16 L 90.257812 16 L 90.257812 37 L 64 37 Z M 64 16 " clip-rule="nonzero"/></clipPath></defs><g clip-path="url(#81a00d1246)"><path fill="#8aab8a" d="M 54.1875 36.871094 C 54.542969 29.410156 55.980469 22.671875 58.417969 16.71875 C 60.925781 10.691406 64.511719 5.386719 69.175781 0.867188 L 69.820312 0.292969 L 69.820312 1.082031 C 70.324219 9.472656 69.535156 16.429688 67.453125 22.023438 C 65.375 27.617188 58.703125 35.003906 53.96875 37.730469 L 56.769531 33.929688 C 61.359375 31.203125 64.726562 27.1875 66.738281 21.738281 C 68.746094 16.429688 69.535156 9.832031 69.175781 1.941406 C 64.800781 6.316406 61.5 11.265625 59.132812 16.933594 C 56.695312 22.886719 55.691406 28.980469 55.332031 36.367188 Z M 54.1875 36.871094 Z M 54.1875 36.871094 " fill-opacity="1" fill-rule="evenodd"/></g><path fill="#8aab8a" d="M 68.53125 6.890625 C 68.027344 8.683594 67.597656 10.191406 67.09375 11.480469 C 66.664062 12.773438 66.234375 13.847656 65.804688 14.636719 C 65.160156 14.996094 64.945312 14.851562 65.160156 14.277344 C 65.589844 13.488281 65.949219 12.484375 66.449219 11.265625 C 66.878906 9.976562 67.308594 8.46875 67.8125 6.675781 C 68.171875 6.316406 68.457031 6.390625 68.53125 6.890625 Z M 68.53125 6.890625 Z M 68.53125 6.890625 " fill-opacity="1" fill-rule="evenodd"/><path fill="#8aab8a" d="M 58.058594 31.707031 C 56.625 34.71875 55.476562 35.722656 55.761719 35.722656 L 54.328125 37.445312 C 53.179688 37.445312 55.621094 35.078125 57.414062 31.347656 C 58.5625 28.910156 60.136719 26.113281 62.148438 22.097656 C 62.578125 21.164062 63.367188 20.089844 63.796875 19.011719 C 64.082031 18.296875 63.867188 17.433594 64.371094 16.789062 C 64.726562 16.359375 64.585938 18.152344 64.371094 19.011719 C 64.15625 20.015625 63.007812 21.378906 62.648438 22.238281 C 60.640625 27.042969 58.703125 30.414062 58.058594 31.707031 Z M 58.058594 31.707031 Z M 58.058594 31.707031 " fill-opacity="1" fill-rule="evenodd"/><path fill="#8aab8a" d="M 42.136719 16.285156 C 46.871094 23.890625 49.8125 31.347656 50.382812 37.445312 C 51.03125 43.683594 49.523438 49.132812 46.007812 53.867188 L 45.4375 53.4375 C 48.878906 48.847656 50.242188 43.539062 49.667969 37.515625 C 49.09375 31.492188 46.511719 24.75 41.851562 17.21875 Z M 42.136719 16.285156 Z M 42.136719 16.285156 " fill-opacity="1" fill-rule="evenodd"/><g clip-path="url(#d3cbfa7d6b)"><path fill="#8aab8a" d="M 78.285156 32.566406 C 76.492188 33.285156 74.554688 33.859375 72.402344 34.359375 C 71.183594 34.648438 69.820312 34.933594 68.457031 35.222656 L 68.53125 35.222656 C 72.6875 35.578125 74.769531 35.722656 76.847656 34.933594 C 78.929688 34.144531 81.152344 32.351562 85.527344 28.839844 C 86.386719 28.121094 87.390625 27.332031 88.46875 26.542969 C 85.382812 26.542969 82.011719 27.261719 78.5 28.621094 C 74.914062 29.984375 71.113281 31.992188 67.09375 34.71875 C 68.886719 34.359375 70.609375 34 72.257812 33.644531 C 74.339844 33.140625 76.273438 32.566406 78.066406 31.921875 C 78.425781 31.777344 78.855469 31.777344 78.285156 32.566406 Z M 65.300781 35.003906 C 69.820312 30.558594 73.910156 26.828125 77.496094 23.746094 C 81.152344 20.734375 84.308594 18.367188 87.035156 16.71875 L 87.605469 16.359375 L 87.535156 17.003906 C 87.535156 17.863281 86.890625 19.226562 85.597656 21.09375 C 84.523438 22.671875 83.015625 24.605469 81.007812 26.972656 C 84.019531 26.113281 86.816406 25.683594 89.472656 25.824219 L 90.476562 25.824219 L 89.6875 26.472656 C 88.324219 27.617188 87.105469 28.550781 86.027344 29.410156 C 81.511719 32.996094 79.289062 34.789062 77.136719 35.578125 C 74.839844 36.441406 72.761719 36.296875 68.457031 35.9375 C 67.597656 35.867188 66.378906 36.226562 65.375 36.152344 C 64.945312 36.152344 64.585938 35.363281 65.300781 35.003906 Z M 78.210938 27.90625 C 78.714844 27.761719 79.214844 27.546875 79.644531 27.402344 C 82.011719 24.679688 83.804688 22.382812 85.023438 20.660156 C 85.8125 19.441406 86.386719 18.511719 86.601562 17.792969 C 84.164062 19.371094 81.222656 21.59375 77.996094 24.320312 C 75.128906 26.757812 71.972656 29.554688 68.601562 32.855469 C 71.972656 30.703125 75.199219 29.125 78.210938 27.90625 Z M 78.210938 27.90625 Z M 78.210938 27.90625 " fill-opacity="1" fill-rule="evenodd"/></g><path fill="#8aab8a" d="M 80.078125 30.988281 C 80.078125 31.5625 79.503906 31.417969 79.214844 31.132812 C 78.714844 31.0625 80.21875 28.839844 80.078125 30.988281 Z M 80.078125 30.988281 Z M 80.078125 30.988281 " fill-opacity="1" fill-rule="evenodd"/><path fill="#8aab8a" d="M 42.566406 17.148438 C 39.984375 24.820312 38.980469 31.636719 39.554688 37.730469 C 40.128906 43.753906 42.28125 48.992188 46.007812 53.4375 L 45.4375 53.867188 C 41.632812 49.351562 39.410156 43.972656 38.835938 37.804688 C 38.265625 31.636719 39.554688 24.03125 42.136719 16.285156 Z M 42.566406 17.148438 Z M 42.566406 17.148438 " fill-opacity="1" fill-rule="evenodd"/><path fill="#8aab8a" d="M 42.925781 17.578125 C 42.996094 19.441406 43.140625 20.949219 43.5 22.167969 C 43.785156 23.386719 44.144531 24.246094 44.648438 24.75 C 44.863281 25.25 44.648438 25.394531 44.144531 25.25 C 43.5 24.605469 43.070312 23.675781 42.710938 22.382812 C 42.421875 21.09375 42.207031 19.515625 42.136719 17.578125 Z M 42.925781 17.578125 Z M 42.925781 17.578125 " fill-opacity="1" fill-rule="evenodd"/><path fill="#8aab8a" d="M 44.933594 25.753906 C 44.789062 26.6875 44.574219 27.1875 44.648438 27.617188 C 44.71875 27.976562 44.789062 28.191406 44.933594 28.265625 C 44.863281 28.480469 45.222656 29.195312 44.71875 28.910156 C 44.289062 28.839844 44 28.40625 43.929688 27.761719 C 43.785156 27.1875 44.074219 26.613281 44.214844 25.683594 C 44.574219 25.46875 44.863281 25.394531 44.933594 25.753906 Z M 44.933594 25.753906 Z M 44.933594 25.753906 " fill-opacity="1" fill-rule="evenodd"/><path fill="#8aab8a" d="M 44.789062 30.988281 L 45.507812 31.777344 C 45.722656 32.28125 45.507812 32.425781 45.003906 32.28125 L 44.289062 31.5625 C 44.074219 31.0625 44.214844 30.847656 44.789062 30.988281 Z M 44.789062 30.988281 Z M 44.789062 30.988281 " fill-opacity="1" fill-rule="evenodd"/><path fill="#8aab8a" d="M 44.933594 33.644531 C 44.71875 34.789062 45.792969 37.230469 45.722656 37.804688 C 45.867188 38.449219 45.4375 38.878906 45.292969 38.234375 C 45.363281 37.371094 44.214844 35.003906 44.289062 33.859375 C 44.289062 33.429688 44.433594 33.140625 44.933594 33.644531 Z M 44.933594 33.644531 Z M 44.933594 33.644531 " fill-opacity="1" fill-rule="evenodd"/><path fill="#8aab8a" d="M 45.792969 38.734375 C 45.652344 41.316406 45.867188 42.894531 46.152344 44.472656 C 46.441406 46.480469 46.796875 48.632812 46.082031 53.4375 L 45.363281 53.292969 C 46.082031 48.632812 45.722656 46.550781 45.4375 44.542969 C 45.148438 42.964844 45.222656 41.390625 45.363281 38.664062 C 45.363281 37.445312 45.867188 37.300781 45.792969 38.734375 Z M 45.792969 38.734375 Z M 45.792969 38.734375 " fill-opacity="1" fill-rule="evenodd"/><path fill="#8aab8a" d="M 34.246094 76.386719 C 36.039062 61.828125 44.074219 57.742188 52.394531 53.726562 C 56.121094 51.859375 59.921875 49.996094 63.222656 47.054688 C 64.15625 46.335938 63.796875 47.558594 63.796875 47.558594 C 62.363281 50.28125 61.140625 52.863281 60.210938 55.230469 C 59.277344 57.597656 58.5625 59.820312 58.128906 61.902344 C 56.410156 66.921875 52.25 68.859375 46.441406 71.582031 C 42.640625 73.375 38.121094 75.457031 33.171875 78.96875 L 32.742188 78.394531 C 37.761719 74.808594 42.28125 72.730469 46.152344 70.9375 C 51.746094 68.285156 55.835938 66.417969 57.414062 61.683594 C 57.914062 59.605469 58.5625 57.382812 59.566406 54.945312 C 60.28125 53.007812 61.214844 51 62.289062 48.777344 C 59.277344 51.144531 55.980469 52.71875 52.679688 54.371094 C 44.574219 58.316406 36.757812 62.1875 34.964844 76.246094 Z M 34.246094 76.386719 Z M 34.246094 76.386719 " fill-opacity="1" fill-rule="evenodd"/><path fill="#8aab8a" d="M 47.945312 64.484375 C 49.882812 62.90625 51.101562 61.828125 51.605469 61.183594 C 51.675781 61.113281 52.535156 60.179688 52.535156 60.179688 C 53.253906 60.035156 52.394531 61.398438 52.175781 61.683594 C 51.605469 62.332031 50.382812 63.476562 48.449219 65.054688 C 47.945312 65.128906 47.800781 64.914062 47.945312 64.484375 Z M 47.945312 64.484375 Z M 47.945312 64.484375 " fill-opacity="1" fill-rule="evenodd"/><path fill="#8aab8a" d="M 52.535156 59.820312 C 52.75 59.320312 52.964844 58.960938 53.324219 58.601562 C 53.683594 58.242188 54.113281 58.027344 54.542969 57.8125 C 54.976562 57.8125 55.332031 57.8125 54.832031 58.53125 C 54.402344 58.671875 54.113281 58.886719 53.828125 59.105469 C 53.613281 59.390625 53.398438 59.75 53.253906 60.109375 Z M 52.535156 59.820312 Z M 52.535156 59.820312 " fill-opacity="1" fill-rule="evenodd"/><path fill="#8aab8a" d="M 54.976562 57.238281 C 56.839844 55.085938 58.128906 53.4375 58.847656 52.363281 C 59.132812 51.859375 59.277344 51.5 59.347656 51.214844 C 59.421875 50.925781 59.347656 51 59.132812 50.925781 L 59.566406 50.28125 C 59.636719 50.28125 59.707031 50.355469 59.78125 50.355469 C 60.066406 50.570312 60.136719 50.925781 60.066406 51.359375 C 59.996094 51.714844 59.78125 52.148438 59.421875 52.71875 C 58.777344 53.867188 57.484375 55.519531 55.546875 57.742188 C 55.046875 57.882812 54.976562 57.527344 54.976562 57.238281 Z M 54.976562 57.238281 Z M 54.976562 57.238281 " fill-opacity="1" fill-rule="evenodd"/><path fill="#8aab8a" d="M 47.585938 66.277344 C 44.074219 68.425781 41.132812 70.578125 38.765625 72.660156 C 36.398438 74.738281 34.535156 76.816406 33.316406 78.898438 L 32.667969 78.46875 C 33.960938 76.386719 35.824219 74.238281 38.265625 72.085938 C 40.703125 69.933594 43.714844 67.78125 47.230469 65.628906 C 47.800781 65.488281 47.945312 65.703125 47.585938 66.277344 Z M 47.585938 66.277344 Z M 47.585938 66.277344 " fill-opacity="1" fill-rule="evenodd"/><path fill="#8aab8a" d="M 16.964844 67.351562 C 16.316406 63.765625 17.035156 59.460938 17.753906 56.664062 C 18.253906 54.441406 18.613281 52.21875 18.46875 49.921875 C 18.398438 48.128906 18.253906 46.410156 17.464844 44.757812 C 16.605469 42.964844 15.171875 41.03125 13.304688 39.023438 C 12.15625 37.875 11.226562 36.367188 10.363281 34.648438 C 9.71875 33.355469 9.21875 31.992188 8.714844 30.414062 C 7.855469 37.15625 7.710938 43.039062 8.355469 47.914062 C 9.074219 53.222656 10.652344 57.453125 13.019531 60.609375 L 13.089844 60.609375 C 14.238281 62.257812 15.097656 63.910156 15.742188 65.628906 C 16.460938 67.28125 16.820312 69 16.964844 70.722656 L 16.246094 70.792969 C 16.101562 69.144531 15.742188 67.496094 15.097656 65.84375 C 14.453125 64.265625 13.59375 62.617188 12.445312 61.039062 C 9.933594 57.8125 8.355469 53.4375 7.640625 47.988281 C 6.921875 42.609375 7.136719 36.152344 8.214844 28.550781 C 8.5 26.328125 8.929688 28.480469 8.929688 28.480469 C 9.503906 30.703125 10.222656 32.640625 11.011719 34.359375 C 11.800781 36.011719 12.730469 37.371094 13.808594 38.519531 C 15.816406 40.601562 17.25 42.609375 18.109375 44.472656 C 19.042969 46.335938 19.113281 48.203125 19.1875 49.921875 C 19.328125 52.21875 19.042969 54.441406 18.46875 56.878906 C 17.753906 59.535156 17.035156 62.472656 17.609375 65.84375 Z M 16.964844 67.351562 Z M 16.964844 67.351562 " fill-opacity="1" fill-rule="evenodd"/><path fill="#8aab8a" d="M 11.367188 36.082031 C 12.375 40.886719 13.234375 44.402344 13.878906 46.695312 C 14.382812 48.5625 14.882812 49.207031 14.953125 49.207031 C 15.742188 50.496094 14.238281 50.570312 13.160156 46.839844 C 12.515625 44.617188 11.441406 39.523438 10.4375 34.71875 Z M 11.367188 36.082031 Z M 11.367188 36.082031 " fill-opacity="1" fill-rule="evenodd"/><path fill="#8aab8a" d="M 15.386719 51.285156 C 15.242188 52.289062 15.457031 53.152344 15.671875 54.011719 C 15.816406 54.511719 15.886719 54.945312 15.960938 55.445312 C 16.175781 56.953125 16.316406 58.746094 16.390625 60.679688 C 16.390625 61.253906 16.460938 61.828125 16.460938 62.472656 C 16.605469 65.488281 16.175781 66.992188 16.175781 66.992188 L 15.457031 66.777344 C 15.457031 66.777344 15.886719 65.414062 15.742188 62.546875 C 15.671875 61.902344 15.671875 61.328125 15.671875 60.753906 C 15.527344 58.816406 15.457031 57.09375 15.242188 55.519531 C 15.171875 55.085938 15.027344 54.65625 14.953125 54.226562 C 14.738281 53.292969 14.453125 52.289062 14.597656 51.214844 C 14.8125 50.496094 15.171875 50.570312 15.386719 51.285156 Z M 15.386719 51.285156 Z M 15.386719 51.285156 " fill-opacity="1" fill-rule="evenodd"/><path fill="#8aab8a" d="M 17.753906 83.703125 C 14.382812 67.28125 19.042969 58.746094 22.84375 52.503906 C 25.066406 48.847656 26.933594 45.765625 26.644531 41.820312 C 26.644531 40.242188 27.148438 41.390625 27.363281 41.675781 C 27.9375 43.753906 28.292969 45.835938 28.4375 47.773438 C 28.511719 49.566406 28.367188 51.214844 27.863281 52.648438 L 27.148438 52.433594 C 27.578125 51.070312 27.722656 49.492188 27.648438 47.773438 C 27.648438 46.695312 27.507812 45.621094 27.289062 44.472656 C 26.789062 47.414062 25.210938 49.996094 23.488281 52.863281 C 19.761719 59.03125 15.3125 67.925781 18.613281 83.992188 Z M 17.753906 83.703125 Z M 17.753906 83.703125 " fill-opacity="1" fill-rule="evenodd"/><path fill="#8aab8a" d="M 18.613281 84.921875 C 18.542969 82.984375 19.042969 80.691406 20.191406 78.179688 C 21.195312 75.886719 22.773438 73.304688 24.925781 70.578125 C 26.359375 68.714844 27.363281 66.203125 27.792969 63.046875 C 28.152344 60.109375 28.007812 56.523438 27.21875 52.363281 L 27.9375 52.21875 C 28.726562 56.449219 28.867188 60.109375 28.511719 63.191406 C 28.078125 66.417969 27.074219 69.074219 25.496094 71.007812 C 23.417969 73.664062 21.839844 76.171875 20.835938 78.46875 C 19.761719 80.90625 19.328125 83.058594 19.328125 84.921875 Z M 18.613281 84.921875 Z M 18.613281 84.921875 " fill-opacity="1" fill-rule="evenodd"/><path fill="#8aab8a" d="M 15.816406 79.542969 C 16.03125 78.898438 15.097656 75.382812 12.945312 69.074219 L 12.945312 69 C 12.445312 67.066406 11.511719 65.273438 10.078125 63.835938 C 8.714844 62.402344 6.921875 61.039062 4.554688 60.324219 C 3.550781 60.035156 2.691406 59.890625 1.972656 59.320312 C 1.757812 59.175781 1.542969 59.03125 1.398438 58.816406 C 3.765625 68.785156 9.433594 75.671875 14.523438 77.105469 L 14.308594 77.824219 C 8.570312 76.171875 2.546875 68.425781 0.179688 56.878906 C 0.0390625 56.164062 0.609375 56.378906 0.898438 56.664062 C 1.257812 57.597656 1.757812 58.242188 2.402344 58.746094 C 3.121094 59.246094 3.910156 59.320312 4.699219 59.605469 C 6.996094 60.25 9.003906 61.613281 10.652344 63.335938 C 12.085938 64.914062 13.089844 66.707031 13.664062 68.859375 C 15.886719 75.3125 16.820312 78.96875 16.460938 79.832031 Z M 15.816406 79.542969 Z M 15.816406 79.542969 " fill-opacity="1" fill-rule="evenodd"/><path fill="#8aab8a" d="M 10.652344 69.074219 C 11.65625 71.726562 12.589844 73.878906 13.59375 75.457031 C 14.523438 77.035156 15.457031 78.109375 16.316406 78.613281 L 15.960938 79.257812 C 14.953125 78.683594 13.949219 77.535156 12.945312 75.8125 C 11.941406 74.238281 10.9375 72.011719 9.933594 69.359375 C 10.007812 68.785156 10.222656 68.640625 10.652344 69.074219 Z M 10.652344 69.074219 Z M 10.652344 69.074219 " fill-opacity="1" fill-rule="evenodd"/><path fill="#8aab8a" d="M 7.136719 63.40625 L 9.003906 66.707031 C 9.144531 67.066406 9.003906 67.351562 8.355469 67.066406 L 6.5625 63.765625 C 6.492188 63.261719 6.707031 63.121094 7.136719 63.40625 Z M 7.136719 63.40625 Z M 7.136719 63.40625 " fill-opacity="1" fill-rule="evenodd"/><path fill="#8aab8a" d="M 22.128906 106.152344 C 22.199219 102.207031 23.777344 98.765625 26.71875 95.894531 L 26.789062 95.894531 C 27.003906 95.679688 27.578125 95.320312 28.367188 94.890625 C 29.441406 94.390625 30.949219 93.601562 32.957031 92.597656 C 33.675781 91.449219 34.964844 90.445312 36.972656 89.511719 C 38.910156 88.652344 41.5625 87.863281 44.863281 87.21875 L 44.933594 87.21875 C 46.582031 87.144531 48.089844 86.644531 49.59375 85.640625 C 51.03125 84.5625 52.464844 83.058594 53.753906 81.050781 L 54.6875 79.617188 L 54.472656 81.265625 C 53.46875 88.4375 50.382812 94.03125 45.222656 98.117188 C 40.128906 102.207031 32.957031 104.644531 23.703125 105.578125 L 24.277344 104.574219 C 33.386719 103.640625 39.769531 101.488281 44.789062 97.546875 C 49.378906 93.886719 52.25 89.011719 53.46875 82.769531 C 52.394531 84.207031 51.246094 85.351562 50.027344 86.214844 C 48.449219 87.289062 46.796875 87.863281 45.003906 87.933594 C 41.777344 88.582031 39.195312 89.371094 37.261719 90.230469 C 35.394531 91.089844 34.175781 92.023438 33.601562 93.027344 L 33.53125 93.171875 L 33.386719 93.171875 C 31.308594 94.246094 29.730469 95.035156 28.726562 95.539062 C 27.792969 96.039062 27.363281 96.039062 27.363281 96.109375 L 27.363281 96.324219 L 27.289062 96.398438 C 24.421875 99.195312 22.914062 102.421875 22.84375 106.152344 Z M 22.128906 106.152344 Z M 22.128906 106.152344 " fill-opacity="1" fill-rule="evenodd"/><path fill="#8aab8a" d="M 50.3125 88.9375 C 49.523438 89.011719 48.949219 89.296875 48.519531 89.65625 C 48.160156 90.015625 48.019531 90.515625 48.019531 91.089844 C 47.800781 91.734375 47.300781 91.59375 47.300781 91.089844 C 47.300781 90.300781 47.515625 89.65625 48.019531 89.152344 C 48.519531 88.652344 49.238281 88.363281 50.167969 88.222656 C 50.671875 88.222656 50.671875 88.507812 50.3125 88.9375 Z M 50.3125 88.9375 Z M 50.3125 88.9375 " fill-opacity="1" fill-rule="evenodd"/><path fill="#8aab8a" d="M 42.925781 93.886719 C 41.417969 95.105469 40.128906 96.253906 38.480469 97.042969 C 36.757812 97.902344 34.605469 97.761719 33.101562 98.90625 L 22.699219 107.011719 L 22.054688 106.296875 C 25.570312 103.5 29.300781 100.988281 32.8125 98.191406 C 34.320312 97.042969 36.398438 97.257812 38.121094 96.398438 C 39.769531 95.609375 40.988281 94.53125 42.496094 93.3125 C 43.570312 92.738281 43.355469 93.457031 42.925781 93.886719 Z M 42.925781 93.886719 Z M 42.925781 93.886719 " fill-opacity="1" fill-rule="evenodd"/><path fill="#8aab8a" d="M 24.78125 61.253906 C 24.277344 63.40625 23.488281 64.914062 23.777344 65.558594 C 22.199219 65.917969 23.847656 62.546875 24.0625 61.183594 C 24.492188 59.390625 23.632812 55.375 26.070312 54.15625 C 24.421875 56.738281 25.140625 59.964844 24.78125 61.253906 Z M 24.78125 61.253906 Z M 24.78125 61.253906 " fill-opacity="1" fill-rule="evenodd"/><path fill="#8aab8a" d="M 23.5625 67.207031 C 23.132812 67.996094 22.773438 68.859375 22.484375 69.789062 C 22.199219 70.722656 21.984375 71.726562 21.839844 72.730469 C 21.769531 73.375 21.554688 74.09375 21.265625 75.023438 C 20.90625 75.886719 20.40625 76.816406 19.976562 77.964844 C 19.761719 78.539062 19.6875 79.257812 19.546875 80.046875 C 19.472656 80.835938 19.328125 81.695312 19.1875 82.554688 L 18.46875 82.484375 C 18.542969 81.550781 18.683594 80.691406 18.828125 79.902344 C 18.972656 79.183594 19.042969 78.394531 19.257812 77.679688 C 19.617188 76.675781 20.191406 75.742188 20.550781 74.738281 C 20.835938 73.949219 21.050781 73.230469 21.121094 72.585938 C 21.265625 71.511719 21.480469 70.507812 21.769531 69.574219 C 22.054688 68.640625 22.484375 67.710938 22.914062 66.847656 C 23.488281 66.347656 23.632812 66.5625 23.5625 67.207031 Z M 23.5625 67.207031 Z M 23.5625 67.207031 " fill-opacity="1" fill-rule="evenodd"/><path fill="#8aab8a" d="M 55.761719 36.152344 C 54.328125 38.234375 53.46875 40.167969 52.464844 42.105469 C 51.53125 43.972656 49.953125 45.621094 49.378906 47.414062 C 47.800781 46.910156 50.816406 42.824219 51.316406 41.746094 C 52.320312 39.738281 53.324219 37.445312 54.757812 35.363281 Z M 55.761719 36.152344 Z M 55.761719 36.152344 " fill-opacity="1" fill-rule="evenodd"/><path fill="#8aab8a" d="M 66.234375 36.011719 C 62.21875 36.796875 58.5625 38.089844 55.90625 39.738281 C 53.324219 41.460938 49.953125 46.625 48.734375 49.277344 L 49.453125 45.90625 C 50.742188 43.183594 52.535156 40.671875 55.261719 38.878906 C 57.988281 37.085938 61.929688 35.792969 66.089844 35.003906 Z M 66.234375 36.011719 Z M 66.234375 36.011719 " fill-opacity="1" fill-rule="evenodd"/><path fill="#8aab8a" d="M 46.511719 53.152344 C 45.652344 54.371094 46.007812 54.371094 45.792969 55.660156 C 45.578125 56.953125 45.792969 56.953125 44.933594 58.242188 L 42.640625 59.605469 C 43.429688 58.386719 44.214844 56.738281 44.359375 55.589844 C 44.574219 54.371094 44.503906 53.222656 44.289062 52.003906 Z M 46.511719 53.152344 Z M 46.511719 53.152344 " fill-opacity="1" fill-rule="evenodd"/><path fill="#8aab8a" d="M 19.6875 81.765625 C 19.402344 85.855469 19.402344 87.648438 20.476562 90.375 C 21.410156 92.523438 21.339844 93.3125 21.554688 96.253906 C 24.996094 89.585938 28.292969 83.558594 32.667969 78.46875 L 34.605469 78.039062 C 29.226562 84.421875 25.355469 92.597656 21.265625 100.917969 L 20.046875 98.476562 C 20.046875 94.964844 19.6875 93.097656 18.683594 90.730469 C 17.609375 87.933594 16.53125 85.136719 16.890625 80.90625 Z M 19.6875 81.765625 Z M 19.6875 81.765625 " fill-opacity="1" fill-rule="evenodd"/><path fill="#8aab8a" d="M 21.265625 100.917969 C 19.976562 102.636719 19.042969 104.214844 18.039062 106.222656 C 17.105469 108.230469 16.246094 110.382812 15.601562 112.605469 L 14.09375 114.472656 C 14.8125 112.175781 16.390625 107.945312 17.394531 105.863281 C 18.398438 103.855469 19.546875 101.921875 20.90625 100.128906 Z M 21.265625 100.917969 Z M 21.265625 100.917969 " fill-opacity="1" fill-rule="evenodd"/><path fill="#8aab8a" d="M 21.265625 100.054688 C 15.816406 110.238281 12.085938 118.414062 10.9375 127.308594 C 10.796875 128.457031 11.011719 129.316406 11.011719 130.464844 C 11.011719 131.539062 11.367188 129.960938 11.367188 130.394531 C 11.152344 132.757812 11.726562 137.421875 11.726562 140.074219 C 11.726562 140.074219 11.226562 136.847656 11.152344 140.433594 C 11.65625 144.378906 11.800781 147.75 13.449219 151.335938 C 13.59375 151.621094 13.808594 151.121094 14.023438 150.691406 C 15.386719 150.042969 14.382812 151.910156 13.734375 152.839844 C 13.59375 153.054688 13.089844 153.054688 12.875 152.339844 C 9.71875 144.59375 8.714844 136.203125 9.863281 127.238281 C 10.9375 118.199219 14.882812 107.300781 20.40625 97.042969 Z M 21.265625 100.054688 Z M 21.265625 100.054688 " fill-opacity="1" fill-rule="evenodd"/><path fill="#8aab8a" d="M 14.023438 150.976562 C 13.089844 148.394531 12.445312 145.382812 11.941406 141.867188 C 11.511719 138.425781 11.296875 134.550781 11.367188 130.25 C 11.511719 128.027344 11.941406 125.660156 12.375 123.292969 L 12.589844 122.289062 C 12.804688 121.210938 12.804688 120.28125 12.875 119.417969 C 12.945312 116.191406 12.445312 112.964844 22.628906 105.507812 L 22.628906 106.941406 C 13.734375 114.183594 13.664062 116.40625 13.59375 119.492188 C 13.59375 120.351562 13.519531 121.285156 13.304688 122.433594 L 13.089844 123.4375 C 12.660156 125.804688 12.230469 128.097656 12.085938 130.320312 C 12.085938 134.550781 12.230469 138.425781 12.730469 141.796875 C 13.160156 145.167969 13.808594 148.179688 14.738281 150.691406 Z M 14.023438 150.976562 Z M 14.023438 150.976562 " fill-opacity="1" fill-rule="evenodd"/></svg>